<?xml version="1.0" standalone="yes"?>
<svg xmlns="http://www.w3.org/2000/svg" width="1000" height="1000">
<path style="fill:#000000; stroke:none;" d="M498 206L434 245L253 354L253 646L419 746.139L498 794L502 794L558 759.8L682 685.2L747 646L747 354L572 248.603L502 206L498 206z"/>
<path style="fill:#ffffff; stroke:none;" d="M499 226L398 287L271 363C268.308 374.307 270 387.412 270 399L270 466L270 580C270 598.003 266.828 619.475 271 637L376 700L499 774L501 774C549.798 741.71 601.529 712.474 652 682.861C677.424 667.944 707.541 654.095 730 635L729 364L672 329.2L561 262.4L501 226L499 226z"/>
<path style="fill:#000000; stroke:none;" d="M492 442L447 487L447 488L459 500L460 500L483 477L483 557L501 557L501 476L518 494L524 500L526 500L537 489L537 487L532 481L492 442M307 443L307 558L322 558L324 556C319.304 530.706 323 501.725 323 476L324 476L343.14 520L361 558L372 558L389.424 520L408 477L409 477L409 557L410 558L425 558L426 557L425 443L406 443L386.306 489L366 534L326 443L307 443M560 443L560 557L561 558L577 558L578 557L578 443L560 443M604 443L604 458L640 458L640 525L641 558L657 558L658 525L658 458L693 458L693 443L604 443z"/>
</svg>
