<svg width="161" height="141" viewBox="0 0 161 141" fill="none" xmlns="http://www.w3.org/2000/svg">
<path d="M141.967 13.0002C143.691 13.0174 145.344 12.3477 146.563 11.1284C147.782 9.9097 148.467 8.24134 148.467 6.50024C148.467 4.75915 147.782 3.09079 146.563 1.87209C145.344 0.652813 143.691 -0.0169454 141.967 0.000244141C140.818 0.0206838 140.345 0.207708 139.97 0.314338C139.611 0.431661 139.405 0.524151 139.241 0.598516C138.936 0.73965 138.739 0.857216 138.72 0.867458C138.602 0.935166 138.525 0.983452 138.461 1.02405C138.324 1.11171 138.292 1.13498 138.242 1.16838C138.147 1.23385 138.102 1.26665 138.057 1.29944C137.963 1.36785 137.912 1.40664 137.855 1.44954C137.747 1.53149 137.653 1.60372 137.572 1.66742C137.401 1.80037 137.241 1.92771 137.088 2.04896C136.778 2.29618 136.485 2.53338 136.189 2.77324C135.599 3.25147 135.021 3.72608 134.443 4.20197C133.288 5.15437 132.151 6.10288 131.011 7.05935C125.841 11.6719 123.256 15.9955 120.104 20.2527C118.36 22.7002 116.595 25.3018 115.028 28.0978C114.32 29.3564 113.735 30.4769 113.16 31.4612C110.414 36.2012 107.816 40.7702 105.036 45.2304C102.495 49.2997 99.4578 53.4146 96.4769 57.834C93.942 61.6647 92.0549 65.2859 90.0295 68.4999C86.9448 73.412 84.077 78.008 80.824 82.5575C76.9468 88.0166 72.8979 93.4831 68.9035 99.0733C65.322 104.082 61.9915 109.053 58.369 113.642C56.9321 115.562 54.4214 117.34 51.5794 119.619C47.843 122.579 43.0043 125.504 38.7317 127.628C33.8974 129.911 29.0327 130.892 23.2257 131.22C19.7762 131.465 16.2888 131.834 14.0331 131.49C13.498 131.379 13.5384 131.417 13.1362 131.062C12.7533 130.701 12.1466 129.797 11.5053 128.721C11.0109 127.984 10.4819 125.858 10.0466 123.69C9.48078 120.912 9.03831 117.8 8.78498 114.932C8.74075 114.43 8.73622 113.94 8.76931 113.537C8.78513 113.338 8.81163 113.161 8.83445 113.05C8.85014 112.947 8.89545 112.883 8.77923 113.105C8.76211 112.922 9.85593 111.984 11.5061 111.018C11.1442 111.225 11.0807 111.217 11.0645 111.226C11.0534 111.227 11.1107 111.209 11.1858 111.191C11.3459 111.152 11.5838 111.108 11.8451 111.07C12.368 110.993 12.977 110.935 13.5946 110.89C14.8367 110.801 16.1426 110.762 17.4568 110.748C20.0849 110.725 22.7609 110.801 25.3927 110.969C29.9136 111.248 34.3319 112.328 38.9057 113.867C45.264 115.932 51.326 118.681 58.3992 120.853C64.913 122.643 71.1154 123.604 77.2608 124.967C83.4918 126.296 89.1495 127.858 95.7636 129.749C99.0667 130.511 102.949 131.432 106.74 131.704C112.401 132.15 118.07 132.002 123.768 130.977C128.037 130.155 131.74 128.508 135.281 126.795C142.005 123.658 147.611 118.251 152.077 113.025C154.873 109.82 155.93 106.206 157.049 103.001C158.982 97.2983 159.686 91.3336 160.17 85.6829C160.761 79.4088 160.59 72.9791 159.656 66.7702C158.925 61.8407 158.15 56.9628 157.132 52.023C156.245 47.5493 154.379 42.8725 151.662 39.1773C148.861 34.8945 144.264 31.6104 140.076 29.5389C138.701 28.771 137.207 28.2035 135.826 27.7723C130.539 25.861 124.957 23.8725 119.482 22.0399C113.058 19.853 106.38 18.8669 99.9736 17.6882C97.3226 17.172 94.4372 16.5401 91.5855 16.3634C84.9958 15.874 78.4642 16.8814 72.2304 18.5688C67.7971 19.7477 63.2127 20.8333 58.7754 22.4072C54.0258 24.0964 49.4394 26.1284 45.0149 28.5453C39.6388 31.4363 35.3176 35.8671 31.5013 40.3689C28.1358 44.2854 25.2648 48.6592 23.2207 53.41C21.0906 58.5117 20.6579 64.0639 21.2479 69.454C21.9235 72.2515 24.6607 72.6941 26.6053 73.3917C28.7052 74.0003 30.8205 74.4116 32.9455 74.8058C34.8682 75.1591 36.8219 75.3075 38.7692 75.2605C41.0604 75.2133 43.338 74.8564 45.5502 74.3825C47.8866 73.8886 49.1264 71.8089 50.3976 70.1442C50.3994 70.1418 50.4044 70.1342 50.406 70.1316C52.9532 65.8669 55.4992 61.6054 57.7131 57.1546C58.479 55.7016 59.3683 54.3105 60.3027 52.9533C59.3417 54.292 58.4248 55.6656 57.6264 57.1106C55.3305 61.5073 52.701 65.7188 50.0739 69.9271L50.0823 69.9145C48.7986 71.5553 47.4875 73.5191 45.4543 73.8752C43.2295 74.3058 41.0051 74.6077 38.76 74.6105C36.855 74.619 34.9538 74.4364 33.0906 74.0561C30.9853 73.6231 28.8912 73.1709 26.8643 72.5397C24.9584 71.9065 22.507 71.0674 22.258 69.3318C21.7848 64.1343 22.3394 58.6856 24.4392 53.9495C26.5119 49.3815 29.3832 45.188 32.7291 41.4457C36.6234 37.0336 40.811 32.9296 45.9567 30.2893C50.298 28.0263 54.8656 26.1088 59.5101 24.5604C63.8496 23.1167 68.3264 22.1479 72.8746 21.0349C78.9449 19.5167 85.2118 18.698 91.3379 19.2775C94.0356 19.5014 96.5816 20.117 99.3683 20.7167C105.89 22.0456 112.3 23.1328 118.342 25.3253C123.802 27.2734 129.088 29.2773 134.626 31.3975C135.928 31.8337 137.073 32.3054 138.153 32.9344C142.426 35.2043 145.764 37.7482 148.2 41.5253C150.625 45.0098 152.002 48.7276 152.776 52.8992C153.659 57.6499 154.343 62.5547 154.964 67.4047C155.733 73.3356 155.77 79.249 155.099 85.1724C154.507 90.8013 153.734 96.1891 151.915 101.229C150.79 104.365 149.669 107.373 147.896 109.252C143.294 114.395 138.601 118.689 132.681 121.345C129.336 122.894 125.935 124.261 122.676 124.809C117.705 125.606 112.451 125.658 107.333 125.147C103.989 124.831 100.908 124.037 97.273 123.124C91.6842 121.375 85.058 119.418 78.8446 117.973C72.607 116.468 66.2447 115.318 60.5317 113.615C54.539 111.661 48.1077 108.655 41.4789 106.345C36.6874 104.622 31.4058 103.182 26.0082 102.749C23.1582 102.512 20.33 102.374 17.4602 102.343C16.0205 102.33 14.5797 102.343 13.0759 102.42C12.3213 102.46 11.5531 102.514 10.7167 102.618C10.2901 102.672 9.86308 102.734 9.34232 102.845C8.79129 102.991 8.33776 102.992 7.08387 103.68C5.49691 104.702 3.04356 105.731 1.14195 108.979C-0.281679 112.088 0.0181117 113.634 0.0432711 115.572C0.280686 118.951 0.656874 122.064 1.2694 125.44C1.74754 127.673 1.94035 130.106 3.67744 133.328C4.37372 134.505 5.10687 135.882 6.54296 137.422C7.93632 138.985 10.4205 140.3 12.481 140.596C17.031 141.288 20.4324 140.765 23.8137 140.642C29.8233 140.462 36.8276 139.279 42.7711 136.545C48.2994 133.913 52.9224 131.246 57.8375 127.562C60.3194 125.595 63.5971 123.556 66.4207 120.087C70.4237 115.209 73.9522 110.152 77.5368 105.346C81.544 99.9644 85.7017 94.5763 89.7983 89.0432C93.2737 84.3848 96.5449 79.3706 99.6147 74.6874C102.023 71.0042 104.026 67.3826 106.087 64.4205C108.936 60.3608 112.112 56.25 115.121 51.6484C118.132 47.024 120.957 42.2739 123.699 37.7497C124.476 36.4747 125.131 35.2743 125.734 34.2547C127.041 32.0254 128.561 29.8647 130.228 27.619C133.252 23.5795 136.468 19.1627 139.161 16.9641C140.295 16.0493 141.426 15.1437 142.561 14.2445C143.128 13.7958 143.694 13.3498 144.255 12.9126C144.536 12.6939 144.813 12.4794 145.085 12.2712C145.217 12.1699 145.354 12.0656 145.474 11.9764C145.53 11.9345 145.591 11.8894 145.629 11.8623C145.646 11.8496 145.663 11.8383 145.65 11.8482C145.641 11.8544 145.632 11.8617 145.577 11.8999C145.546 11.9208 145.53 11.9335 145.416 12.0062C145.362 12.0403 145.294 12.0831 145.183 12.1465C145.166 12.1558 144.981 12.2669 144.68 12.4059C144.519 12.479 144.316 12.5705 143.959 12.6871C143.586 12.7931 143.115 12.9798 141.967 13.0002Z" fill="#FF0000"/>
</svg>
