<svg width="55" height="51" viewBox="0 0 55 51" fill="none" xmlns="http://www.w3.org/2000/svg">
<path d="M4.19 1.49004L10.75 1.29004L10.04 1.55004C9.8 1.63671 9.77667 1.73671 9.97 1.85004C18.71 7.26004 28.65 16.51 38.93 7.17004C42.36 4.05004 48.93 -0.869961 52.02 5.33004C54.17 9.63004 48.55 14.81 45.26 10.18C45.1543 10.031 45.0794 9.87135 45.0413 9.71352C45.0031 9.55569 45.0027 9.40393 45.04 9.27004C45.1733 8.81004 45.51 8.77337 46.05 9.16004C49.75 11.83 51.32 5.03004 47.74 5.00004C46.2 4.98004 45.0833 5.66004 44.39 7.04004C40.01 15.76 35.48 24.46 23.49 20.24C18.62 18.53 13.44 10.23 10.25 5.97004C8.33 3.41004 5.89667 2.79337 2.95 4.12004C2.89161 4.14697 2.82805 4.1615 2.76424 4.1625C2.70043 4.16351 2.63808 4.15096 2.58202 4.12582C2.52595 4.10069 2.47767 4.06365 2.44091 4.01756C2.40414 3.97147 2.37988 3.91758 2.37 3.86004C2.17667 2.69337 2.78334 1.90337 4.19 1.49004Z" fill="#A1D240"/>
<path d="M29.4836 8.29161C31.5286 7.87183 32.8848 6.06232 32.5128 4.24995C32.1408 2.43759 30.1814 1.30867 28.1364 1.72845C26.0914 2.14823 24.7352 3.95774 25.1072 5.7701C25.4792 7.58247 27.4386 8.71138 29.4836 8.29161Z" fill="#A1D240"/>
<path d="M22.6838 29.4038C23.6682 28.8446 24.066 27.6866 23.5722 26.8174C23.0785 25.9482 21.8802 25.697 20.8957 26.2562C19.9113 26.8155 19.5136 27.9734 20.0073 28.8426C20.5011 29.7118 21.6994 29.963 22.6838 29.4038Z" fill="#A1D240"/>
<path d="M29.2203 29.5345C30.2718 29.1786 30.8644 28.1225 30.5439 27.1756C30.2234 26.2287 29.1111 25.7497 28.0597 26.1056C27.0082 26.4615 26.4156 27.5176 26.7361 28.4645C27.0566 29.4113 28.1688 29.8904 29.2203 29.5345Z" fill="white"/>
<path d="M49.9402 29.5855C51.0501 29.3354 51.7707 28.3377 51.5497 27.3571C51.3287 26.3766 50.2498 25.7844 49.14 26.0345C48.0301 26.2847 47.3095 27.2823 47.5305 28.2629C47.7515 29.2435 48.8303 29.8356 49.9402 29.5855Z" fill="white"/>
<path d="M3.96013 40.5C4.72679 37.36 4.81013 34.1933 4.21013 31C4.05679 30.3933 3.63013 30.0733 2.93013 30.04C2.75063 30.0308 2.58282 29.9889 2.44397 29.9186C2.30511 29.8483 2.20024 29.7521 2.14013 29.64C1.13013 27.76 11.9901 29.15 12.4901 29.26C20.1601 30.97 18.6101 41.7 11.4301 43.41C8.90013 44.01 5.46013 43.46 2.53013 43.46C2.46071 43.4595 2.39196 43.4459 2.3286 43.42C2.26524 43.394 2.2088 43.3565 2.16316 43.3099C2.11753 43.2633 2.08378 43.2088 2.06427 43.1501C2.04475 43.0914 2.03993 43.03 2.05013 42.97C2.14346 42.33 2.56346 42.01 3.31013 42.01C3.46936 42.0097 3.6216 41.9674 3.74288 41.8895C3.86417 41.8117 3.94763 41.7028 3.98013 41.58C4.06679 41.2333 4.06013 40.8733 3.96013 40.5ZM7.84013 41.91C16.7101 43.12 16.4101 29.37 7.79013 30.25C7.65005 30.2673 7.52136 30.3342 7.42899 30.4377C7.33662 30.5411 7.28714 30.6738 7.29013 30.81L7.34013 41.34C7.33907 41.4798 7.38942 41.6151 7.48161 41.7202C7.5738 41.8253 7.70139 41.8928 7.84013 41.91Z" fill="white"/>
<path d="M18.95 49.7099H17C21.34 45.0699 20.22 40.7099 20.37 34.8499C20.39 34.0099 20.32 33.7299 19.46 33.5699C19.02 33.4899 18.7167 33.3899 18.55 33.2699C16.31 31.6199 22.05 31.8699 22.87 31.8799C23.0072 31.8797 23.139 31.9317 23.2379 32.025C23.3367 32.1182 23.3948 32.2455 23.4 32.3799C23.63 36.1799 24.35 43.3599 22.01 46.5099C21.1433 47.6766 20.1233 48.7433 18.95 49.7099Z" fill="#A1D240"/>
<path d="M25.9399 42.6C28.0299 41.61 27.2799 36.4 27.1999 34.4C27.1943 34.2612 27.1417 34.1271 27.05 34.0174C26.9582 33.9076 26.832 33.8279 26.6899 33.79C25.7832 33.5434 25.4432 33.1 25.6699 32.46C25.7167 32.332 25.8108 32.2192 25.9405 32.1357C26.0702 32.0522 26.2299 32.0016 26.3999 31.99L29.7199 31.81C29.7841 31.8059 29.8485 31.8151 29.909 31.8368C29.9695 31.8586 30.0249 31.8926 30.0718 31.9366C30.1187 31.9807 30.156 32.0339 30.1815 32.093C30.207 32.152 30.22 32.2157 30.2199 32.28L30.2899 41.58C30.2926 41.7201 30.3404 41.8561 30.4265 41.9691C30.5126 42.0821 30.6327 42.1664 30.7699 42.21C31.6366 42.4767 31.8632 42.8167 31.4499 43.23C31.3556 43.327 31.227 43.4033 31.0732 43.4534C30.9194 43.5035 30.7442 43.5263 30.5599 43.52C29.8399 43.51 25.6799 43.66 25.5399 43.21C25.5086 43.108 25.5319 42.99 25.6055 42.8778C25.679 42.7657 25.7979 42.667 25.9399 42.6Z" fill="white"/>
<path d="M38.0401 42.31C38.5468 42.4833 38.7268 42.7433 38.5801 43.09C38.5269 43.2139 38.4234 43.32 38.2828 43.3948C38.1421 43.4696 37.9707 43.5096 37.7901 43.51L33.4501 43.46C33.3845 43.4593 33.3198 43.4446 33.2605 43.4169C33.2012 43.3892 33.1488 43.3492 33.1068 43.2996C33.0649 43.2501 33.0346 43.1922 33.0178 43.1301C33.0011 43.068 32.9985 43.0031 33.0101 42.94C33.1168 42.4467 33.3768 42.02 33.7901 41.66C33.9213 41.5443 34.0269 41.4126 34.0995 41.2744C34.172 41.1361 34.2098 40.9947 34.2101 40.86V34.41C34.21 34.2739 34.1612 34.14 34.0711 34.0283C33.981 33.9166 33.8544 33.833 33.7101 33.79C30.2601 32.77 35.3701 31.13 37.7601 32.53C37.8908 32.6056 38.0384 32.6454 38.1878 32.6454C38.3373 32.6454 38.483 32.6056 38.6101 32.53C45.0901 28.7 43.9701 38.19 44.0301 40.95C44.0331 41.1291 44.0691 41.2994 44.1351 41.4472C44.2012 41.5949 44.2954 41.7158 44.4101 41.8L45.8501 42.86C46.0968 43.04 46.0834 43.16 45.8101 43.22C44.0168 43.6333 42.2234 43.7033 40.4301 43.43C40.3709 43.4211 40.3146 43.3988 40.2652 43.3646C40.2159 43.3304 40.1749 43.2853 40.1451 43.2325C40.1154 43.1798 40.0977 43.1207 40.0934 43.0597C40.089 42.9987 40.0982 42.9373 40.1201 42.88C41.0934 40.2867 41.2768 37.6333 40.6701 34.92C40.6322 34.7538 40.5643 34.6005 40.471 34.471C40.3777 34.3414 40.2614 34.2387 40.1301 34.17C39.4568 33.8033 38.7434 33.7067 37.9901 33.88C37.8419 33.914 37.7096 33.9959 37.6151 34.1122C37.5206 34.2285 37.4695 34.3724 37.4701 34.52L37.5001 41.68C37.5027 41.8112 37.556 41.9421 37.6527 42.0549C37.7493 42.1677 37.8847 42.2568 38.0401 42.31Z" fill="white"/>
<path d="M51.7699 42.17C55.1999 44.07 46.9599 43.5701 46.7199 43.2701C46.6836 43.2242 46.6608 43.1691 46.6533 43.1086C46.6458 43.0481 46.6537 42.9834 46.6764 42.919C46.6992 42.8546 46.7362 42.792 46.7851 42.7352C46.834 42.6785 46.8936 42.629 46.9599 42.5901C48.6199 41.6401 47.9999 36.3401 47.9899 34.5401C47.9902 34.4041 47.9476 34.2672 47.8666 34.1438C47.7855 34.0205 47.6692 33.9155 47.5299 33.8401C47.0699 33.5867 46.7633 33.2234 46.6099 32.7501C46.5878 32.6825 46.5805 32.6109 46.5887 32.5407C46.5969 32.4705 46.6204 32.4037 46.6572 32.3455C46.694 32.2874 46.7432 32.2395 46.801 32.2055C46.8587 32.1716 46.9234 32.1526 46.9899 32.1501L50.7399 31.9201C50.8031 31.9173 50.8661 31.9302 50.9252 31.9581C50.9843 31.986 51.0384 32.0283 51.0841 32.0824C51.1299 32.1365 51.1663 32.2014 51.1914 32.2732C51.2165 32.3449 51.2296 32.4221 51.2299 32.5001L51.2999 41.44C51.3026 41.583 51.3474 41.7257 51.4299 41.8538C51.5124 41.9819 51.6296 42.0909 51.7699 42.17Z" fill="white"/>
</svg>
