<svg width="1011" height="170" viewBox="0 0 1011 170" fill="none" xmlns="http://www.w3.org/2000/svg">
<path d="M1007.92 106.08C1006.1 109.813 1003.81 113.28 1001.04 116.48C998.262 119.68 995.115 122.293 991.595 124.32C988.075 126.24 984.235 127.2 980.075 127.2C975.702 127.2 972.555 125.973 970.635 123.52C968.822 121.067 967.915 118.027 967.915 114.4C967.915 112.267 968.182 110.187 968.715 108.16C969.248 106.133 969.888 104.107 970.635 102.08C971.702 99.52 973.195 96.4267 975.115 92.8C977.035 89.1734 979.168 85.6 981.515 82.08C983.862 78.56 986.208 75.6267 988.555 73.28C990.902 70.9333 992.982 69.76 994.795 69.76C995.648 69.76 996.555 69.92 997.515 70.24C998.475 70.4533 999.488 70.56 1000.56 70.56C1000.98 70.56 1001.36 70.5067 1001.68 70.4C1001.04 70.72 1000.02 71.7333 998.635 73.44C997.248 75.04 995.648 77.0134 993.835 79.36C992.128 81.7067 990.368 84.1067 988.555 86.56C986.742 89.0133 985.142 91.2 983.755 93.12C985.568 91.2 987.968 89.28 990.955 87.36C993.942 85.3333 997.088 84.32 1000.4 84.32C1004.02 84.32 1006.69 85.3333 1008.4 87.36C1010.1 89.3867 1010.96 91.7867 1010.96 94.56C1010.96 96.48 1010.64 98.5067 1010 100.64C1009.46 102.667 1008.77 104.48 1007.92 106.08ZM998.955 108.64C1000.24 106.187 1001.14 103.893 1001.68 101.76C1002.21 99.52 1002.48 97.7067 1002.48 96.32C1002.48 94.1867 1002.05 92.4267 1001.2 91.04C1000.34 89.5467 998.848 88.8 996.715 88.8C994.048 88.8 991.115 90.2933 987.915 93.28C984.715 96.2667 981.835 100.107 979.275 104.8C977.675 107.787 976.502 110.4 975.755 112.64C975.115 114.88 974.795 117.013 974.795 119.04C974.795 120.747 975.222 122.133 976.075 123.2C976.928 124.267 978.475 124.8 980.715 124.8C983.062 124.8 986.048 123.36 989.675 120.48C993.408 117.493 996.502 113.547 998.955 108.64Z" fill="white"/>
<path d="M946.349 63.2002C943.683 63.2002 940.856 62.8268 937.87 62.0802C934.99 61.3335 932.056 60.5868 929.07 59.8402C926.19 59.0935 923.469 58.7201 920.909 58.7201C918.776 58.7201 916.803 59.0935 914.99 59.8402C913.176 60.4802 911.683 61.8135 910.51 63.8402L910.03 64.6402C909.71 65.0668 909.443 65.2802 909.229 65.2802C909.016 65.2802 908.803 65.1202 908.59 64.8002C908.376 64.4802 908.323 64.1068 908.43 63.6802C909.603 60.6935 911.736 58.3468 914.83 56.6402C917.923 54.8268 921.443 53.9202 925.39 53.9202C928.163 53.9202 931.683 54.2935 935.95 55.0401C940.323 55.7868 944.269 56.1602 947.789 56.1602C950.029 56.1602 952.536 56.0535 955.31 55.8402C958.19 55.5202 960.91 54.8268 963.47 53.7602C966.136 52.5868 968.163 50.7202 969.549 48.1602C970.616 48.1602 971.15 48.5335 971.15 49.2802C969.123 54.0802 966.35 57.6002 962.83 59.8402C959.31 62.0802 953.816 63.2002 946.349 63.2002ZM882.669 126.08C881.496 126.08 880.536 126.08 879.789 126.08C878.936 126.187 878.083 126.453 877.229 126.88C881.176 119.307 884.91 111.733 888.43 104.16C891.95 96.4802 895.523 89.2268 899.15 82.4002C901.283 78.5602 903.043 75.8935 904.43 74.4002C905.923 72.8002 907.896 72.0002 910.349 72.0002C911.203 72.0002 912.11 72.1602 913.07 72.4802C914.03 72.6935 914.99 72.8002 915.95 72.8002C916.59 72.8002 917.07 72.7468 917.39 72.6402C915.896 73.4935 913.976 75.6268 911.63 79.0402C909.283 82.3468 906.883 86.1868 904.43 90.5602C901.976 94.9335 899.79 99.0402 897.87 102.88C899.896 100.427 901.976 97.9735 904.109 95.5202C906.349 93.0668 908.803 90.7202 911.469 88.4802C913.816 86.4535 916.27 84.2668 918.83 81.9202C921.496 79.4668 924.109 77.3868 926.669 75.6802C929.229 73.9735 931.47 73.1202 933.39 73.1202C934.136 73.1202 934.616 73.1735 934.83 73.2802C936.856 74.1335 937.87 75.5202 937.87 77.4402C937.87 78.0802 937.603 79.0402 937.07 80.3202C935.683 83.9468 933.87 87.6802 931.63 91.5202C929.496 95.2535 927.47 99.0402 925.549 102.88C927.15 100.96 929.123 98.6135 931.47 95.8402C933.923 93.0668 936.376 90.6135 938.83 88.4802C941.176 86.3468 944.163 84.1068 947.789 81.7602C951.416 79.4135 954.99 77.3868 958.51 75.6802C962.03 73.9735 964.856 73.1202 966.99 73.1202C967.736 73.1202 968.27 73.1735 968.59 73.2802C968.59 73.2802 968.003 74.3468 966.83 76.4802C965.656 78.5068 964.163 81.2268 962.349 84.6402C960.643 87.9468 958.883 91.5202 957.07 95.3602C955.256 99.0935 953.603 102.72 952.109 106.24C950.723 109.653 949.816 112.533 949.39 114.88C949.07 116.267 948.909 117.547 948.909 118.72C948.909 120.427 949.23 121.547 949.87 122.08C950.51 122.613 951.203 122.88 951.95 122.88C954.083 122.88 956.163 121.973 958.19 120.16C960.323 118.347 962.403 116.053 964.43 113.28C966.456 110.4 968.27 107.36 969.87 104.16C971.576 100.96 973.016 97.9735 974.19 95.2002C975.47 95.2002 976.109 95.6802 976.109 96.6402C974.936 99.5202 973.443 102.72 971.63 106.24C969.923 109.653 967.95 112.907 965.71 116C963.47 119.093 961.016 121.653 958.349 123.68C955.683 125.707 952.803 126.72 949.71 126.72C947.47 126.72 945.336 125.973 943.31 124.48C941.39 122.987 940.43 120.213 940.43 116.16C940.43 111.787 941.443 107.413 943.469 103.04C945.603 98.6668 947.79 94.6668 950.03 91.0402C951.096 89.2268 951.63 87.7868 951.63 86.7202C951.63 85.4402 950.99 84.8002 949.71 84.8002C948.643 84.8002 947.149 85.3335 945.229 86.4002C943.416 87.4668 941.123 89.3335 938.349 92.0002C936.643 93.6002 934.616 95.8402 932.27 98.7202C930.03 101.493 927.736 104.533 925.39 107.84C923.043 111.147 921.016 114.4 919.31 117.6C917.603 120.8 916.483 123.627 915.95 126.08C914.35 126.08 913.069 125.44 912.109 124.16C911.149 122.773 910.669 121.173 910.669 119.36C910.669 119.04 910.669 118.72 910.669 118.4C910.669 118.08 910.723 117.707 910.83 117.28C911.363 113.973 912.216 111.2 913.39 108.96C914.563 106.613 915.896 103.893 917.39 100.8C918.136 99.4135 918.99 97.8135 919.95 96.0002C920.91 94.0802 921.763 92.2668 922.51 90.5602C923.256 88.7468 923.63 87.2535 923.63 86.0802C923.63 85.0135 923.203 84.4802 922.349 84.4802C921.389 84.4802 920.11 84.9602 918.51 85.9202C917.016 86.8802 915.576 88.0002 914.19 89.2802C912.803 90.4535 911.736 91.3602 910.99 92.0002C908.323 94.5602 905.069 98.2402 901.229 103.04C897.496 107.84 893.389 114.667 888.909 123.52C888.269 124.693 887.523 125.44 886.669 125.76C885.816 125.973 884.483 126.08 882.669 126.08Z" fill="white"/>
<path d="M870.127 126.56C867.673 126.56 865.487 125.867 863.567 124.48C861.753 123.093 860.847 120.267 860.847 116C860.847 114.187 860.953 112.48 861.167 110.88C861.487 109.28 861.86 107.573 862.287 105.76C861.327 107.36 859.993 109.333 858.287 111.68C856.58 114.027 854.66 116.32 852.527 118.56C850.5 120.8 848.367 122.667 846.127 124.16C843.993 125.653 841.967 126.4 840.047 126.4C837.273 126.4 835.033 125.173 833.327 122.72C831.62 120.16 830.767 116.853 830.767 112.8C830.767 108.427 831.78 103.733 833.807 98.72C835.833 93.7067 838.607 88.9067 842.127 84.32C845.647 79.7334 849.7 76 854.287 73.12C858.873 70.24 863.673 68.8 868.687 68.8C871.14 68.8 873.487 69.2267 875.727 70.08C877.967 70.8267 879.94 72.1067 881.647 73.92C882.393 74.6667 882.767 75.52 882.767 76.48C882.767 77.12 882.5 77.6534 881.967 78.08C881.433 78.5067 880.74 78.6134 879.887 78.4C878.713 74.6667 876.207 72.8 872.367 72.8C870.553 72.8 868.473 73.3867 866.127 74.56C863.247 76.0534 860.153 78.4534 856.847 81.76C853.647 84.96 850.607 88.64 847.727 92.8C844.953 96.8534 842.66 100.96 840.847 105.12C839.033 109.28 838.127 113.067 838.127 116.48C838.127 120 839.46 121.76 842.127 121.76C844.473 121.76 846.873 120.64 849.327 118.4C851.887 116.16 854.287 113.387 856.527 110.08C858.873 106.667 861.007 103.307 862.927 100C864.847 96.6934 866.34 94.0267 867.407 92C869.007 89.12 870.5 86.72 871.887 84.8C873.273 82.88 875.247 81.92 877.807 81.92C878.98 81.92 880.153 82.08 881.327 82.4C882.5 82.72 883.727 82.7734 885.007 82.56C881.807 85.76 878.98 89.5467 876.527 93.92C874.18 98.2934 872.367 102.613 871.087 106.88C869.807 111.04 869.167 114.56 869.167 117.44C869.167 120.64 870.233 122.24 872.367 122.24C874.073 122.24 875.887 121.28 877.807 119.36C879.833 117.44 881.753 115.04 883.567 112.16C885.487 109.173 887.247 106.187 888.847 103.2C890.447 100.107 891.727 97.4401 892.687 95.2001C893.22 95.2001 893.647 95.2534 893.967 95.36C894.393 95.4667 894.607 95.8934 894.607 96.64C894.5 97.0667 894.287 97.5467 893.967 98.08C893.753 98.5067 893.38 99.3067 892.847 100.48C891.993 102.187 890.82 104.48 889.327 107.36C887.833 110.24 886.073 113.173 884.047 116.16C882.02 119.04 879.833 121.493 877.487 123.52C875.14 125.547 872.687 126.56 870.127 126.56Z" fill="white"/>
<path d="M828.61 86.5598C828.61 89.7598 827.757 93.5998 826.05 98.0798C824.344 102.56 821.944 106.933 818.85 111.2C815.757 115.467 812.077 119.04 807.81 121.92C803.65 124.693 799.117 126.08 794.21 126.08C789.944 126.08 786.957 124.8 785.25 122.24C783.544 119.68 782.69 116.48 782.69 112.64C782.69 110.507 782.957 108.32 783.49 106.08C784.024 103.84 785.144 100.907 786.85 97.2798C785.89 97.2798 785.357 97.0665 785.25 96.6398C785.25 96.1065 785.25 95.6265 785.25 95.1999C786.317 92.6399 787.864 89.2799 789.89 85.1199C791.917 80.8532 794.264 76.2132 796.93 71.1998C799.597 66.0798 802.424 60.9598 805.41 55.8398C808.397 50.7198 811.384 45.9198 814.37 41.4398C817.357 36.8532 820.184 33.0665 822.85 30.0798C829.784 21.8665 836.557 15.4665 843.17 10.8798C849.784 6.18651 856.13 3.83984 862.21 3.83984C865.837 3.83984 868.61 4.74651 870.53 6.55985C872.557 8.26652 873.57 10.5598 873.57 13.4398C873.57 17.3865 871.757 22.1865 868.13 27.8398C864.504 33.3865 859.064 39.1465 851.81 45.1198C847.437 48.7465 841.624 52.6932 834.37 56.9599C827.117 61.1199 818.584 64.5865 808.77 67.3599H808.45C804.824 73.9732 801.57 80.3732 798.69 86.5598C795.917 92.7465 793.73 98.3465 792.13 103.36C790.53 108.267 789.73 112.213 789.73 115.2C789.73 116.8 789.89 118.24 790.21 119.52C790.424 120.373 790.904 121.173 791.65 121.92C792.504 122.56 793.517 122.88 794.69 122.88C796.184 122.88 797.89 122.293 799.81 121.12C801.837 119.947 804.077 117.867 806.53 114.88C808.024 113.067 809.57 110.88 811.17 108.32C812.77 105.76 814.264 103.147 815.65 100.48C817.037 97.7065 818.157 95.2532 819.01 93.1199C820.824 88.8532 821.73 84.9599 821.73 81.4398C821.73 78.0265 820.93 75.7865 819.33 74.7198C817.837 73.6532 815.544 73.1198 812.45 73.1198C810.53 73.1198 809.57 72.5865 809.57 71.5199C809.57 71.0932 809.837 70.6665 810.37 70.2399C811.01 69.8132 811.864 69.5999 812.93 69.5999C816.984 69.5999 820.61 71.0932 823.81 74.0798C827.01 77.0665 828.61 81.2265 828.61 86.5598ZM862.21 9.11985C858.584 9.11985 854.584 10.6665 850.21 13.7598C845.944 16.7465 841.517 20.7998 836.93 25.9198C832.344 31.0398 827.81 36.8532 823.33 43.3599C818.957 49.7599 814.797 56.3732 810.85 63.1998C819.064 60.6398 826.53 57.3865 833.25 53.4398C839.97 49.3865 845.41 45.6532 849.57 42.2398C855.864 37.0132 860.557 31.9998 863.65 27.1998C866.744 22.2932 868.29 18.2932 868.29 15.1999C868.29 13.3865 867.757 11.9465 866.69 10.8798C865.73 9.70652 864.237 9.11985 862.21 9.11985Z" fill="white"/>
<path d="M740.787 126.08C736.414 126.08 733.161 124.534 731.027 121.44C729.001 118.24 727.987 114.4 727.987 109.92C727.987 105.76 728.787 101.44 730.387 96.9602C732.094 92.0535 734.441 87.5735 737.427 83.5202C740.521 79.4668 743.881 76.2135 747.507 73.7602C751.241 71.2002 754.921 69.9202 758.547 69.9202C762.921 69.9202 766.121 71.4135 768.147 74.4002C770.281 77.3868 771.347 81.1735 771.347 85.7602C771.347 88.9602 770.814 92.3202 769.747 95.8402C768.681 99.3602 767.241 102.827 765.427 106.24C766.814 107.627 768.787 108.32 771.347 108.32C774.334 108.32 776.894 107.36 779.027 105.44C781.161 103.52 783.241 100.107 785.267 95.2002C786.547 95.2002 787.187 95.6802 787.187 96.6402C785.161 101.547 782.814 105.174 780.147 107.52C777.587 109.76 774.281 110.827 770.227 110.72C767.774 110.72 765.747 110.027 764.147 108.64C761.161 113.547 757.587 117.707 753.427 121.12C749.374 124.427 745.161 126.08 740.787 126.08ZM743.027 122.56C745.481 122.56 747.934 121.547 750.387 119.52C752.841 117.387 755.081 114.987 757.107 112.32C759.134 109.654 760.574 107.36 761.427 105.44C759.721 102.347 758.707 100.053 758.387 98.5602C758.174 96.9602 758.067 95.7868 758.067 95.0402C758.067 93.0135 758.601 91.4668 759.667 90.4002C760.734 89.3335 761.801 88.8002 762.867 88.8002C764.361 88.8002 765.641 89.4402 766.707 90.7202C766.921 89.5468 767.081 88.4802 767.187 87.5202C767.294 86.4535 767.347 85.4402 767.347 84.4802C767.347 81.7068 766.814 79.4668 765.747 77.7602C764.787 75.9468 763.241 75.0402 761.107 75.0402C758.867 75.0402 756.521 76.0002 754.067 77.9202C751.614 79.8402 749.267 82.4002 747.027 85.6002C744.894 88.8002 743.027 92.3735 741.427 96.3202C740.041 99.6268 738.974 102.774 738.227 105.76C737.481 108.64 737.107 111.307 737.107 113.76C737.107 116.427 737.587 118.56 738.547 120.16C739.507 121.76 741.001 122.56 743.027 122.56Z" fill="white"/>
<path d="M694.25 100.8C691.477 105.493 688.81 109.813 686.25 113.76C683.69 117.707 681.023 120.853 678.25 123.2C675.583 125.44 672.543 126.56 669.13 126.56C666.57 126.56 664.277 125.813 662.25 124.32C660.223 122.72 659.21 120.427 659.21 117.44C659.21 115.627 659.637 113.653 660.49 111.52C661.237 109.387 662.357 107.573 663.85 106.08C665.45 104.587 667.37 103.947 669.61 104.16C671.103 104.267 672.437 104.853 673.61 105.92C671.69 107.733 670.197 109.867 669.13 112.32C668.063 114.773 667.53 116.907 667.53 118.72C667.53 119.787 667.743 120.8 668.17 121.76C668.703 122.613 669.61 123.04 670.89 123.04C672.917 123.04 674.997 121.92 677.13 119.68C679.37 117.333 681.663 114.347 684.01 110.72C686.463 106.987 688.863 103.147 691.21 99.2C694.303 94.1867 697.343 89.5467 700.33 85.28C703.423 81.0134 706.303 77.7067 708.97 75.36C712.383 72.48 715.637 71.04 718.73 71.04H719.37C723.637 71.04 724.81 73.0667 722.89 77.12L717.29 89.12C716.33 91.04 715.157 93.44 713.77 96.32C712.49 99.0934 711.21 101.973 709.93 104.96C708.757 107.84 707.797 110.613 707.05 113.28C706.41 115.84 706.197 117.92 706.41 119.52C706.73 121.12 707.797 121.92 709.61 121.92C712.277 121.92 714.89 120.533 717.45 117.76C720.117 114.987 722.623 111.573 724.97 107.52C727.317 103.36 729.397 99.2534 731.21 95.2C731.637 95.2 732.063 95.36 732.49 95.68C732.917 95.8934 733.13 96.2134 733.13 96.64C731.21 101.44 728.97 106.08 726.41 110.56C723.957 115.04 721.077 118.72 717.77 121.6C714.57 124.48 710.837 125.92 706.57 125.92C702.41 125.92 699.797 124.48 698.73 121.6C697.77 118.613 697.877 114.72 699.05 109.92C700.33 105.12 702.303 99.8934 704.97 94.24C707.637 88.48 710.57 82.88 713.77 77.44C714.943 75.52 715.263 74.56 714.73 74.56C714.303 74.56 713.557 74.9867 712.49 75.84C711.53 76.5867 710.623 77.3867 709.77 78.24C707.743 80.16 705.557 82.8267 703.21 86.24C700.863 89.6534 697.877 94.5067 694.25 100.8Z" fill="white"/>
<path d="M647.627 126.56C645.173 126.56 642.987 125.867 641.067 124.48C639.253 123.093 638.347 120.267 638.347 116C638.347 114.187 638.453 112.48 638.667 110.88C638.987 109.28 639.36 107.573 639.787 105.76C638.827 107.36 637.493 109.333 635.787 111.68C634.08 114.027 632.16 116.32 630.027 118.56C628 120.8 625.867 122.667 623.627 124.16C621.493 125.653 619.467 126.4 617.547 126.4C614.773 126.4 612.533 125.173 610.827 122.72C609.12 120.16 608.267 116.853 608.267 112.8C608.267 108.427 609.28 103.733 611.307 98.72C613.333 93.7067 616.107 88.9067 619.627 84.32C623.147 79.7334 627.2 76 631.787 73.12C636.373 70.24 641.173 68.8 646.187 68.8C648.64 68.8 650.987 69.2267 653.227 70.08C655.467 70.8267 657.44 72.1067 659.147 73.92C659.893 74.6667 660.267 75.52 660.267 76.48C660.267 77.12 660 77.6534 659.467 78.08C658.933 78.5067 658.24 78.6134 657.387 78.4C656.213 74.6667 653.707 72.8 649.867 72.8C648.053 72.8 645.973 73.3867 643.627 74.56C640.747 76.0534 637.653 78.4534 634.347 81.76C631.147 84.96 628.107 88.64 625.227 92.8C622.453 96.8534 620.16 100.96 618.347 105.12C616.533 109.28 615.627 113.067 615.627 116.48C615.627 120 616.96 121.76 619.627 121.76C621.973 121.76 624.373 120.64 626.827 118.4C629.387 116.16 631.787 113.387 634.027 110.08C636.373 106.667 638.507 103.307 640.427 100C642.347 96.6934 643.84 94.0267 644.907 92C646.507 89.12 648 86.72 649.387 84.8C650.773 82.88 652.747 81.92 655.307 81.92C656.48 81.92 657.653 82.08 658.827 82.4C660 82.72 661.227 82.7734 662.507 82.56C659.307 85.76 656.48 89.5467 654.027 93.92C651.68 98.2934 649.867 102.613 648.587 106.88C647.307 111.04 646.667 114.56 646.667 117.44C646.667 120.64 647.733 122.24 649.867 122.24C652 122.24 654.293 120.8 656.747 117.92C659.2 114.933 661.493 111.627 663.627 108C664.16 108 664.533 108.213 664.747 108.64C665.067 109.067 665.227 109.493 665.227 109.92C663.733 112.587 662.027 115.2 660.107 117.76C658.293 120.32 656.32 122.453 654.187 124.16C652.16 125.76 649.973 126.56 647.627 126.56Z" fill="white"/>
<path d="M538.003 107.52C534.483 112.747 530.43 117.28 525.843 121.12C521.256 124.854 516.83 126.72 512.563 126.72C509.47 126.72 506.963 125.76 505.043 123.84C503.123 121.92 502.163 119.147 502.163 115.52C502.163 112.534 502.803 109.814 504.083 107.36C505.256 104.8 506.803 102.774 508.723 101.28C510.643 99.6802 512.616 98.8802 514.643 98.8802C516.456 98.8802 517.896 99.5735 518.963 100.96C515.976 103.307 513.63 106.24 511.923 109.76C510.323 113.174 509.523 116.374 509.523 119.36C509.523 121.92 510.59 123.2 512.723 123.2C513.896 123.2 515.443 122.454 517.363 120.96C519.39 119.36 521.416 117.494 523.443 115.36C525.47 113.12 527.07 111.147 528.243 109.44C529.31 107.947 530.643 105.707 532.243 102.72C533.843 99.7335 535.283 96.3735 536.563 92.6402C537.843 88.9068 538.483 85.2802 538.483 81.7602C538.59 78.9869 538.163 76.8535 537.203 75.3602C536.35 73.8668 535.176 73.1202 533.683 73.1202C531.55 73.1202 529.63 73.9202 527.923 75.5202C526.216 77.1202 524.403 80.1068 522.483 84.4802C521.096 84.5868 520.19 84.3735 519.763 83.8402C519.336 83.3069 519.123 82.7202 519.123 82.0802C519.123 80.8002 520.03 79.2002 521.843 77.2802C523.656 75.3602 525.896 73.6535 528.563 72.1602C531.23 70.5602 533.79 69.7602 536.243 69.7602C539.656 69.7602 542.323 70.8802 544.243 73.1202C546.27 75.3602 547.283 78.4535 547.283 82.4002C547.283 84.5335 546.963 86.8268 546.323 89.2802C545.79 91.6268 544.99 94.0269 543.923 96.4802C546.056 93.9202 548.403 91.2535 550.963 88.4802C553.523 85.6002 555.976 82.9335 558.323 80.4802C560.776 77.9202 562.91 75.8402 564.723 74.2402C566.536 72.5335 567.763 71.6268 568.403 71.5202C569.79 71.9468 570.59 72.6402 570.803 73.6002C571.123 74.5602 571.23 75.4669 571.123 76.3202C571.016 77.0668 570.75 78.0268 570.323 79.2002C570.003 80.2668 569.256 81.7602 568.083 83.6802C566.056 87.0935 564.083 90.7735 562.163 94.7202C560.243 98.5602 558.056 103.467 555.603 109.44C560.51 102.4 565.63 96.0002 570.963 90.2402C576.403 84.4802 581.683 79.7335 586.803 76.0002C589.256 73.9735 591.71 72.3735 594.163 71.2002C596.723 70.0268 599.016 69.4402 601.043 69.4402C603.603 69.4402 605.683 70.2935 607.283 72.0002C608.883 73.7069 609.683 75.7868 609.683 78.2402C609.683 80.2669 609.15 82.1869 608.083 84.0002C607.016 85.8135 605.79 87.3068 604.403 88.4802C603.016 89.5468 601.843 90.0802 600.883 90.0802C600.243 90.0802 599.603 89.7602 598.963 89.1202C599.816 87.9469 600.723 86.6135 601.683 85.1202C602.75 83.6269 603.496 82.1868 603.923 80.8002C604.243 79.5202 604.403 78.2402 604.403 76.9602C604.403 75.4668 604.083 74.4535 603.443 73.9202C602.803 73.2802 601.896 72.9602 600.723 72.9602C598.376 72.9602 595.923 74.2402 593.363 76.8002C590.803 79.3602 588.456 82.6669 586.323 86.7202C584.19 90.6669 582.43 94.8802 581.043 99.3602C579.656 103.84 578.91 107.947 578.803 111.68C578.696 114.454 579.123 117.12 580.083 119.68C581.043 122.134 582.963 123.36 585.843 123.36C589.15 123.36 592.403 122.027 595.603 119.36C598.91 116.694 602.056 113.227 605.043 108.96C608.03 104.587 610.643 100 612.883 95.2002C613.31 95.2002 613.736 95.3068 614.163 95.5202C614.59 95.6268 614.803 96.0002 614.803 96.6402C612.456 101.974 609.63 106.934 606.323 111.52C603.123 116.107 599.55 119.787 595.603 122.56C591.763 125.334 587.71 126.72 583.443 126.72C578.963 126.72 575.55 125.227 573.203 122.24C570.963 119.254 569.843 115.627 569.843 111.36C569.843 107.627 570.59 103.467 572.083 98.8802C573.683 94.2935 575.603 90.1335 577.843 86.4002C574.003 89.9202 570.216 93.9202 566.483 98.4002C562.856 102.88 559.656 107.467 556.883 112.16C554.11 116.854 552.19 121.174 551.123 125.12C549.63 125.12 548.616 124.48 548.083 123.2C547.55 121.814 547.283 120.374 547.283 118.88C547.283 115.787 547.976 112.214 549.363 108.16C550.75 104.107 552.083 100.694 553.363 97.9202C555.176 94.1868 556.83 90.9335 558.323 88.1602C559.816 85.2802 561.096 82.8802 562.163 80.9602C561.736 80.9602 560.83 81.6535 559.443 83.0402C558.163 84.3202 556.67 85.9202 554.963 87.8402C553.363 89.7602 551.87 91.5202 550.483 93.1202C547.283 96.7469 544.67 99.6802 542.643 101.92C540.616 104.16 539.07 106.027 538.003 107.52Z" fill="white"/>
<path d="M507.945 108.32C506.238 109.387 504.638 110.08 503.145 110.4C501.651 110.614 500.158 110.72 498.665 110.72C496.211 110.72 494.185 110.027 492.585 108.64C489.598 113.547 486.025 117.707 481.865 121.12C477.811 124.427 473.598 126.08 469.225 126.08C464.851 126.08 461.598 124.534 459.465 121.44C457.438 118.24 456.425 114.4 456.425 109.92C456.425 105.76 457.225 101.44 458.825 96.9602C460.531 92.0535 462.878 87.5735 465.865 83.5202C468.958 79.4668 472.318 76.2135 475.945 73.7602C479.678 71.2002 483.358 69.9202 486.985 69.9202C491.358 69.9202 494.558 71.4135 496.585 74.4002C498.718 77.3868 499.785 81.1735 499.785 85.7602C499.785 88.9602 499.251 92.3202 498.185 95.8402C497.118 99.3602 495.678 102.827 493.865 106.24C495.251 107.627 497.225 108.32 499.785 108.32C500.745 108.32 501.705 108.214 502.665 108C503.625 107.787 504.745 107.307 506.025 106.56C506.665 106.56 507.145 106.773 507.465 107.2C507.785 107.627 507.945 108 507.945 108.32ZM471.465 122.56C473.918 122.56 476.371 121.547 478.825 119.52C481.278 117.387 483.518 114.987 485.545 112.32C487.571 109.654 489.011 107.36 489.865 105.44C488.158 102.347 487.145 100.053 486.825 98.5602C486.611 96.9602 486.505 95.7868 486.505 95.0402C486.505 93.0135 487.038 91.4668 488.105 90.4002C489.171 89.3335 490.238 88.8002 491.305 88.8002C492.798 88.8002 494.078 89.4402 495.145 90.7202C495.358 89.5468 495.518 88.4802 495.625 87.5202C495.731 86.4535 495.785 85.4402 495.785 84.4802C495.785 81.7068 495.251 79.4668 494.185 77.7602C493.225 75.9468 491.678 75.0402 489.545 75.0402C487.305 75.0402 484.958 76.0002 482.505 77.9202C480.051 79.8402 477.705 82.4002 475.465 85.6002C473.331 88.8002 471.465 92.3735 469.865 96.3202C468.478 99.6268 467.411 102.774 466.665 105.76C465.918 108.64 465.545 111.307 465.545 113.76C465.545 116.427 466.025 118.56 466.985 120.16C467.945 121.76 469.438 122.56 471.465 122.56Z" fill="white"/>
<path d="M390.202 127.36C394.042 119.573 397.722 111.893 401.242 104.32C404.762 96.64 408.389 89.3333 412.122 82.4C414.255 78.56 416.069 75.8933 417.562 74.4C419.055 72.8 421.029 72 423.482 72C424.335 72 425.242 72.16 426.202 72.48C427.162 72.6933 428.122 72.8 429.082 72.8C429.722 72.8 430.202 72.7467 430.522 72.64C429.029 73.4933 427.056 75.6267 424.602 79.04C422.256 82.3467 419.855 86.1867 417.402 90.56C414.949 94.9333 412.762 99.04 410.842 102.88C412.869 100.427 415.002 97.9733 417.242 95.52C419.482 93.0667 421.936 90.72 424.602 88.48C427.162 86.24 430.202 83.9467 433.722 81.6C437.349 79.1467 440.869 77.12 444.282 75.52C447.695 73.92 450.415 73.12 452.442 73.12C453.189 73.12 453.722 73.1733 454.042 73.28C454.042 73.28 453.455 74.3467 452.282 76.48C451.109 78.5067 449.615 81.2267 447.802 84.64C446.095 87.9467 444.335 91.52 442.522 95.36C440.709 99.0933 439.055 102.72 437.562 106.24C436.175 109.653 435.269 112.533 434.842 114.88C434.522 116.267 434.362 117.547 434.362 118.72C434.362 120.427 434.682 121.547 435.322 122.08C435.962 122.613 436.655 122.88 437.402 122.88C439.429 122.88 441.509 121.973 443.642 120.16C445.775 118.347 447.802 116.053 449.722 113.28C451.749 110.4 453.616 107.36 455.322 104.16C457.029 100.96 458.469 97.9733 459.642 95.2C460.922 95.2 461.562 95.68 461.562 96.64C460.389 99.52 458.895 102.72 457.082 106.24C455.375 109.653 453.402 112.907 451.162 116C449.029 119.093 446.629 121.653 443.962 123.68C441.295 125.707 438.416 126.72 435.322 126.72C433.189 126.72 430.949 125.973 428.602 124.48C426.362 122.987 425.242 120.213 425.242 116.16C425.242 114.987 425.349 113.76 425.562 112.48C425.775 111.093 426.149 109.6 426.682 108C427.535 105.867 428.549 103.573 429.722 101.12C430.896 98.6667 432.816 95.3067 435.482 91.04C436.229 89.8667 436.656 88.96 436.762 88.32C436.976 87.68 437.082 87.1467 437.082 86.72C437.082 85.44 436.496 84.8 435.322 84.8C434.362 84.8 432.922 85.3333 431.002 86.4C429.189 87.4667 426.895 89.3333 424.122 92C421.455 94.56 418.255 98.1867 414.522 102.88C410.895 107.573 406.682 114.507 401.882 123.68C401.136 125.067 400.282 125.813 399.322 125.92C398.469 126.027 397.242 126.133 395.642 126.24C394.575 126.347 393.562 126.4 392.602 126.4C391.642 126.507 390.842 126.827 390.202 127.36Z" fill="white"/>
<path d="M356.047 69.9202C360.421 69.9202 363.621 71.4135 365.647 74.4002C367.781 77.3868 368.847 81.1735 368.847 85.7602C368.847 89.9202 367.994 94.3468 366.287 99.0402C364.581 103.627 362.234 108 359.247 112.16C356.367 116.214 353.114 119.574 349.487 122.24C345.861 124.8 342.127 126.08 338.287 126.08C333.914 126.08 330.661 124.534 328.527 121.44C326.501 118.24 325.487 114.4 325.487 109.92C325.487 105.76 326.287 101.44 327.887 96.9602C329.594 92.0535 331.941 87.5735 334.927 83.5202C338.021 79.4668 341.381 76.2135 345.007 73.7602C348.741 71.2002 352.421 69.9202 356.047 69.9202ZM340.527 122.56C343.087 122.56 345.754 121.44 348.527 119.2C351.407 116.853 354.074 113.814 356.527 110.08C358.981 106.347 360.954 102.24 362.447 97.7602C364.047 93.2802 364.847 88.8535 364.847 84.4802C364.847 81.7068 364.314 79.4668 363.247 77.7602C362.287 75.9468 360.741 75.0402 358.607 75.0402C356.367 75.0402 354.021 76.0002 351.567 77.9202C349.114 79.8402 346.767 82.4002 344.527 85.6002C342.394 88.8002 340.527 92.3735 338.927 96.3202C337.541 99.6268 336.474 102.774 335.727 105.76C334.981 108.64 334.607 111.307 334.607 113.76C334.607 116.427 335.087 118.56 336.047 120.16C337.007 121.76 338.501 122.56 340.527 122.56Z" fill="white"/>
<path d="M249.817 169.76C248.537 169.76 247.471 169.6 246.617 169.28C245.657 169.067 244.431 168.96 242.938 168.96C243.471 168.213 244.751 165.973 246.777 162.24C248.804 158.613 251.204 154.08 253.978 148.64C256.644 143.2 259.471 137.387 262.457 131.2C265.337 125.013 268.004 118.933 270.457 112.96C273.017 106.88 274.991 101.547 276.378 96.9601C277.124 94.5068 277.711 91.7334 278.138 88.6401C278.564 85.4401 278.777 81.8668 278.777 77.9201C278.777 76.4268 278.617 75.1468 278.297 74.0801C277.977 73.0134 277.391 72.4268 276.538 72.3201L284.538 71.0401C285.178 70.9334 285.764 70.8801 286.297 70.8801C286.831 70.7734 287.311 70.7201 287.737 70.7201C288.697 70.7201 289.338 71.0934 289.658 71.8401C290.084 72.4801 290.297 73.8668 290.297 76.0001C290.297 78.6668 289.818 82.0801 288.858 86.2401C288.004 90.2934 286.991 93.8668 285.818 96.9601C286.991 95.0401 288.484 92.5868 290.297 89.6001C292.217 86.6134 294.404 83.5734 296.858 80.4801C299.311 77.3868 301.871 74.8268 304.538 72.8001C307.204 70.6668 309.818 69.6001 312.378 69.6001C312.911 69.6001 313.604 69.7068 314.457 69.9201C317.444 70.6668 319.524 72.1601 320.698 74.4001C321.978 76.5334 322.617 79.0934 322.617 82.0801C322.617 85.2801 321.978 88.8001 320.698 92.6401C319.524 96.4801 317.924 100.267 315.897 104C313.871 107.627 311.631 110.933 309.177 113.92C306.191 117.653 302.617 120.64 298.457 122.88C294.297 125.12 290.031 126.24 285.658 126.24C281.711 126.24 278.031 125.227 274.617 123.2L259.098 161.44C257.604 165.067 256.111 167.36 254.617 168.32C253.124 169.28 251.524 169.76 249.817 169.76ZM280.538 122.88C283.524 122.88 286.884 121.493 290.617 118.72C294.351 115.947 297.924 112.427 301.337 108.16C304.857 103.787 307.791 99.4134 310.138 95.0401C311.738 92.0534 312.911 89.3334 313.658 86.8801C314.404 84.3201 314.777 82.1334 314.777 80.3201C314.777 76.1601 313.284 74.0801 310.297 74.0801C308.911 74.0801 307.098 74.8268 304.858 76.3201C302.724 77.8134 300.217 80.5334 297.337 84.4801C294.244 88.7468 290.831 94.1334 287.098 100.64C283.471 107.04 279.737 113.813 275.897 120.96C277.177 122.24 278.724 122.88 280.538 122.88Z" fill="white"/>
<path d="M311.151 17.92C311.364 17.6 311.737 17.44 312.271 17.44C313.124 17.44 313.497 17.6533 313.391 18.08C313.391 18.4 313.177 18.9333 312.751 19.68C311.897 21.0667 310.671 22.6667 309.071 24.48C307.577 26.1867 305.711 27.68 303.471 28.96C301.231 30.24 298.511 30.88 295.311 30.88C292.644 30.88 289.817 30.3466 286.831 29.28C283.951 28.1066 281.017 26.8266 278.031 25.44C275.151 24.0533 272.431 22.8267 269.871 21.76C267.311 20.5866 265.071 20 263.151 20C260.057 20 257.604 21.0133 255.791 23.04C253.977 24.96 253.071 27.4666 253.071 30.56C253.071 33.44 253.764 36.9066 255.151 40.96C256.644 44.9066 258.297 49.2266 260.111 53.92C261.924 58.5067 263.524 63.2533 264.911 68.16C266.404 72.96 267.151 77.6533 267.151 82.24C267.151 87.2533 266.191 92.3733 264.271 97.6C262.351 102.72 259.737 107.467 256.431 111.84C253.231 116.107 249.604 119.573 245.551 122.24C241.604 124.8 237.551 126.08 233.391 126.08C229.231 126.08 226.191 124.747 224.271 122.08C222.351 119.307 221.391 115.947 221.391 112C221.391 107.2 222.511 102.187 224.751 96.96C226.777 92.0533 229.444 87.5733 232.751 83.52C236.164 79.4667 239.844 76.2133 243.791 73.76C247.737 71.2 251.631 69.92 255.471 69.92C256.324 69.92 257.231 70.0266 258.191 70.24C259.257 70.3466 260.377 70.6666 261.551 71.2C260.057 66.08 258.297 60.8533 256.271 55.52C254.244 50.08 252.431 45.0133 250.831 40.32C249.231 35.52 248.431 31.4133 248.431 28C248.431 23.6266 249.924 19.9466 252.911 16.96C255.897 13.9733 260.164 12.48 265.711 12.48C268.804 12.48 271.791 13.0666 274.671 14.24C277.657 15.3066 280.537 16.5867 283.311 18.08C286.191 19.4666 289.017 20.7466 291.791 21.92C294.564 22.9866 297.337 23.52 300.111 23.52C302.991 23.52 305.284 23.04 306.991 22.08C308.697 21.0133 310.084 19.6266 311.151 17.92ZM261.231 83.36C261.231 82.4 261.124 81.28 260.911 80C260.804 78.6133 260.377 77.44 259.631 76.48C258.991 75.52 257.924 75.04 256.431 75.04C253.871 75.04 250.671 76.8533 246.831 80.48C242.991 84.1066 239.364 89.3866 235.951 96.32C234.244 99.9467 232.857 103.467 231.791 106.88C230.831 110.187 230.351 113.067 230.351 115.52C230.351 117.653 230.777 119.36 231.631 120.64C232.484 121.92 233.924 122.56 235.951 122.56C238.617 122.56 241.391 121.493 244.271 119.36C247.257 117.12 250.031 114.133 252.591 110.4C255.151 106.667 257.231 102.453 258.831 97.76C260.431 93.0667 261.231 88.2667 261.231 83.36Z" fill="white"/>
<path d="M181.569 126.08C177.195 126.08 173.942 124.534 171.809 121.44C169.782 118.24 168.769 114.4 168.769 109.92C168.769 105.76 169.569 101.44 171.169 96.9602C172.875 92.0535 175.222 87.5735 178.209 83.5202C181.302 79.4668 184.662 76.2135 188.289 73.7602C192.022 71.2002 195.702 69.9202 199.329 69.9202C203.702 69.9202 206.902 71.4135 208.929 74.4002C211.062 77.3868 212.129 81.1735 212.129 85.7602C212.129 88.9602 211.595 92.3202 210.529 95.8402C209.462 99.3602 208.022 102.827 206.209 106.24C207.595 107.627 209.569 108.32 212.129 108.32C215.115 108.32 217.675 107.36 219.809 105.44C221.942 103.52 224.022 100.107 226.049 95.2002C227.329 95.2002 227.969 95.6802 227.969 96.6402C225.942 101.547 223.595 105.174 220.929 107.52C218.369 109.76 215.062 110.827 211.009 110.72C208.555 110.72 206.529 110.027 204.929 108.64C201.942 113.547 198.369 117.707 194.209 121.12C190.155 124.427 185.942 126.08 181.569 126.08ZM183.809 122.56C186.262 122.56 188.715 121.547 191.169 119.52C193.622 117.387 195.862 114.987 197.889 112.32C199.915 109.654 201.355 107.36 202.209 105.44C200.502 102.347 199.489 100.053 199.169 98.5602C198.955 96.9602 198.849 95.7868 198.849 95.0402C198.849 93.0135 199.382 91.4668 200.449 90.4002C201.515 89.3335 202.582 88.8002 203.649 88.8002C205.142 88.8002 206.422 89.4402 207.489 90.7202C207.702 89.5468 207.862 88.4802 207.969 87.5202C208.075 86.4535 208.129 85.4402 208.129 84.4802C208.129 81.7068 207.595 79.4668 206.529 77.7602C205.569 75.9468 204.022 75.0402 201.889 75.0402C199.649 75.0402 197.302 76.0002 194.849 77.9202C192.395 79.8402 190.049 82.4002 187.809 85.6002C185.675 88.8002 183.809 92.3735 182.209 96.3202C180.822 99.6268 179.755 102.774 179.009 105.76C178.262 108.64 177.889 111.307 177.889 113.76C177.889 116.427 178.369 118.56 179.329 120.16C180.289 121.76 181.782 122.56 183.809 122.56Z" fill="white"/>
<path d="M25.92 132.96C21.5467 132.96 17.3867 132.32 13.44 131.04C9.49333 129.76 6.24 127.84 3.68 125.28C1.22667 122.72 0 119.52 0 115.68C0 111.733 1.70667 108.16 5.12 104.96C8.64 101.76 13.6 100.16 20 100.16C26.72 100.16 33.0667 101.707 39.04 104.8C45.12 107.787 51.52 111.04 58.24 114.56C63.8933 109.12 68.9067 102.827 73.28 95.68C77.76 88.4267 82.0267 80.8 86.08 72.8C90.24 64.8 94.5067 56.8533 98.88 48.96C103.253 40.96 108.16 33.5467 113.6 26.72C114.56 25.5467 115.52 24.3733 116.48 23.2C117.44 21.92 118.453 20.6933 119.52 19.52C113.76 16.1067 107.573 13.4933 100.96 11.68C94.3467 9.76 87.52 8.8 80.48 8.8C71.7333 8.8 63.6267 9.92 56.16 12.16C48.6933 14.4 42.1867 17.44 36.64 21.28C31.2 25.0133 26.9333 29.28 23.84 34.08C20.7467 38.7733 19.2 43.6267 19.2 48.64C19.2 53.12 20.1067 56.8533 21.92 59.84C23.84 62.72 26.24 64.8533 29.12 66.24C32 67.6267 34.8267 68.32 37.6 68.32C41.3333 68.32 44.5333 67.6267 47.2 66.24C49.8667 64.7467 52.0533 62.9333 53.76 60.8C55.4667 58.6667 56.7467 56.5867 57.6 54.56C58.4533 52.5333 58.9333 50.88 59.04 49.6C59.04 48.8533 59.52 48.48 60.48 48.48C61.9733 48.48 62.56 49.3867 62.24 51.2C61.7067 55.4667 60.1067 59.2 57.44 62.4C54.7733 65.4933 51.5733 67.9467 47.84 69.76C44.1067 71.4667 40.2667 72.32 36.32 72.32C31.6267 72.32 27.36 71.4667 23.52 69.76C19.68 67.9467 16.5867 65.28 14.24 61.76C12 58.1333 10.88 53.7067 10.88 48.48C10.88 41.5467 12.7467 35.36 16.48 29.92C20.2133 24.3733 25.3333 19.68 31.84 15.84C38.3467 12 45.8133 9.06667 54.24 7.04C62.6667 5.01334 71.5733 4.00001 80.96 4.00001C88.2133 4.00001 95.52 4.90667 102.88 6.72C110.24 8.42667 117.227 11.04 123.84 14.56C126.613 11.4667 129.44 8.74667 132.32 6.4C135.307 3.94667 138.347 2.08 141.44 0.799999C142.827 0.266666 143.947 0 144.8 0C145.44 0 145.76 0.160001 145.76 0.480003C145.76 1.01334 144.533 2.34667 142.08 4.48C140.693 5.76 139.04 7.73334 137.12 10.4C135.2 12.96 133.227 15.7867 131.2 18.88C137.6 23.04 143.253 28.1067 148.16 34.08C153.173 39.9467 157.12 46.6667 160 54.24C162.88 61.7067 164.32 70.0267 164.32 79.2C164.32 88.16 162.773 96 159.68 102.72C156.587 109.333 152.373 114.827 147.04 119.2C141.707 123.573 135.573 126.827 128.64 128.96C121.707 131.2 114.4 132.32 106.72 132.32C97.6533 132.32 89.2267 131.093 81.44 128.64C73.76 126.187 66.6133 123.413 60 120.32C54.7733 124.48 49.3333 127.627 43.68 129.76C38.1333 131.893 32.2133 132.96 25.92 132.96ZM120.32 36C118.08 39.52 115.36 44 112.16 49.44C108.96 54.7733 105.387 60.5867 101.44 66.88C97.4933 73.1733 93.3867 79.4667 89.12 85.76C84.8533 92.0533 80.5333 97.9733 76.16 103.52C71.8933 108.96 67.7333 113.547 63.68 117.28C69.3333 120.053 75.5733 122.453 82.4 124.48C89.2267 126.507 96.96 127.52 105.6 127.52C115.413 127.52 123.947 125.493 131.2 121.44C138.453 117.28 144.107 111.68 148.16 104.64C152.213 97.4933 154.24 89.44 154.24 80.48C154.24 68.8533 151.787 58.2933 146.88 48.8C141.973 39.2 135.413 31.2 127.2 24.8C125.813 27.04 124.533 29.1733 123.36 31.2C122.187 33.12 121.173 34.72 120.32 36ZM25.92 128C31.36 128.32 36.64 127.36 41.76 125.12C46.9867 122.773 51.3067 120.267 54.72 117.6C48.32 114.507 42.4 111.68 36.96 109.12C31.6267 106.56 26.6667 105.28 22.08 105.28C18.3467 105.28 15.4667 106.4 13.44 108.64C11.4133 110.773 10.4 113.173 10.4 115.84C10.4 119.253 11.7333 122.08 14.4 124.32C17.1733 126.56 21.0133 127.787 25.92 128Z" fill="white"/>
</svg>
