<svg width="280" height="280" viewBox="0 0 280 280" fill="none" xmlns="http://www.w3.org/2000/svg">
  <defs>
    <linearGradient id="flowerGrad2" x1="0%" y1="100%" x2="100%" y2="0%">
      <stop offset="0%" stop-color="#4CAF50" stop-opacity="0.25"/>
      <stop offset="100%" stop-color="#81C784" stop-opacity="0.1"/>
    </linearGradient>
  </defs>
  <path d="M140 20C160 45 195 35 220 60C245 85 255 120 235 155C265 175 260 220 225 240C190 260 155 250 130 220C100 245 55 235 40 195C25 155 50 120 85 105C60 75 75 35 115 25C145 18 155 40 140 20Z" fill="url(#flowerGrad2)"/>
  <ellipse cx="140" cy="145" rx="35" ry="35" fill="#4CAF50" fill-opacity="0.15"/>
  <ellipse cx="140" cy="145" rx="20" ry="20" fill="#4CAF50" fill-opacity="0.25"/>
</svg>
