<svg width="300" height="300" viewBox="0 0 300 300" fill="none" xmlns="http://www.w3.org/2000/svg">
  <defs>
    <linearGradient id="flowerGrad1" x1="0%" y1="0%" x2="100%" y2="100%">
      <stop offset="0%" stop-color="#FF8A00" stop-opacity="0.3"/>
      <stop offset="100%" stop-color="#FFB347" stop-opacity="0.15"/>
    </linearGradient>
  </defs>
  <path d="M150 30C180 60 220 50 240 80C260 110 270 150 240 180C260 210 250 250 210 260C170 270 140 260 120 230C90 250 50 240 40 200C30 160 50 130 80 120C60 90 70 50 110 40C140 32 160 50 150 30Z" fill="url(#flowerGrad1)"/>
  <circle cx="150" cy="150" r="40" fill="#FF8A00" fill-opacity="0.2"/>
  <circle cx="150" cy="150" r="25" fill="#FF8A00" fill-opacity="0.3"/>
</svg>
