<svg viewBox="0 0 360 360" xmlns="http://www.w3.org/2000/svg">
  <!-- Orange Kratom Flower -->
  <g fill="#D35D2A" transform="translate(180, 180)">
    <!-- Outer layer petals -->
    <path d="M0,-160 Q14,-130 7,-85 Q0,-70 -7,-85 Q-14,-130 0,-160Z" />
    <path d="M0,-160 Q14,-130 7,-85 Q0,-70 -7,-85 Q-14,-130 0,-160Z" transform="rotate(15)" />
    <path d="M0,-160 Q14,-130 7,-85 Q0,-70 -7,-85 Q-14,-130 0,-160Z" transform="rotate(30)" />
    <path d="M0,-160 Q14,-130 7,-85 Q0,-70 -7,-85 Q-14,-130 0,-160Z" transform="rotate(45)" />
    <path d="M0,-160 Q14,-130 7,-85 Q0,-70 -7,-85 Q-14,-130 0,-160Z" transform="rotate(60)" />
    <path d="M0,-160 Q14,-130 7,-85 Q0,-70 -7,-85 Q-14,-130 0,-160Z" transform="rotate(75)" />
    <path d="M0,-160 Q14,-130 7,-85 Q0,-70 -7,-85 Q-14,-130 0,-160Z" transform="rotate(90)" />
    <path d="M0,-160 Q14,-130 7,-85 Q0,-70 -7,-85 Q-14,-130 0,-160Z" transform="rotate(105)" />
    <path d="M0,-160 Q14,-130 7,-85 Q0,-70 -7,-85 Q-14,-130 0,-160Z" transform="rotate(120)" />
    <path d="M0,-160 Q14,-130 7,-85 Q0,-70 -7,-85 Q-14,-130 0,-160Z" transform="rotate(135)" />
    <path d="M0,-160 Q14,-130 7,-85 Q0,-70 -7,-85 Q-14,-130 0,-160Z" transform="rotate(150)" />
    <path d="M0,-160 Q14,-130 7,-85 Q0,-70 -7,-85 Q-14,-130 0,-160Z" transform="rotate(165)" />
    <path d="M0,-160 Q14,-130 7,-85 Q0,-70 -7,-85 Q-14,-130 0,-160Z" transform="rotate(180)" />
    <path d="M0,-160 Q14,-130 7,-85 Q0,-70 -7,-85 Q-14,-130 0,-160Z" transform="rotate(195)" />
    <path d="M0,-160 Q14,-130 7,-85 Q0,-70 -7,-85 Q-14,-130 0,-160Z" transform="rotate(210)" />
    <path d="M0,-160 Q14,-130 7,-85 Q0,-70 -7,-85 Q-14,-130 0,-160Z" transform="rotate(225)" />
    <path d="M0,-160 Q14,-130 7,-85 Q0,-70 -7,-85 Q-14,-130 0,-160Z" transform="rotate(240)" />
    <path d="M0,-160 Q14,-130 7,-85 Q0,-70 -7,-85 Q-14,-130 0,-160Z" transform="rotate(255)" />
    <path d="M0,-160 Q14,-130 7,-85 Q0,-70 -7,-85 Q-14,-130 0,-160Z" transform="rotate(270)" />
    <path d="M0,-160 Q14,-130 7,-85 Q0,-70 -7,-85 Q-14,-130 0,-160Z" transform="rotate(285)" />
    <path d="M0,-160 Q14,-130 7,-85 Q0,-70 -7,-85 Q-14,-130 0,-160Z" transform="rotate(300)" />
    <path d="M0,-160 Q14,-130 7,-85 Q0,-70 -7,-85 Q-14,-130 0,-160Z" transform="rotate(315)" />
    <path d="M0,-160 Q14,-130 7,-85 Q0,-70 -7,-85 Q-14,-130 0,-160Z" transform="rotate(330)" />
    <path d="M0,-160 Q14,-130 7,-85 Q0,-70 -7,-85 Q-14,-130 0,-160Z" transform="rotate(345)" />
    
    <!-- Middle layer petals -->
    <path d="M0,-120 Q18,-95 10,-60 Q0,-45 -10,-60 Q-18,-95 0,-120Z" />
    <path d="M0,-120 Q18,-95 10,-60 Q0,-45 -10,-60 Q-18,-95 0,-120Z" transform="rotate(20)" />
    <path d="M0,-120 Q18,-95 10,-60 Q0,-45 -10,-60 Q-18,-95 0,-120Z" transform="rotate(40)" />
    <path d="M0,-120 Q18,-95 10,-60 Q0,-45 -10,-60 Q-18,-95 0,-120Z" transform="rotate(60)" />
    <path d="M0,-120 Q18,-95 10,-60 Q0,-45 -10,-60 Q-18,-95 0,-120Z" transform="rotate(80)" />
    <path d="M0,-120 Q18,-95 10,-60 Q0,-45 -10,-60 Q-18,-95 0,-120Z" transform="rotate(100)" />
    <path d="M0,-120 Q18,-95 10,-60 Q0,-45 -10,-60 Q-18,-95 0,-120Z" transform="rotate(120)" />
    <path d="M0,-120 Q18,-95 10,-60 Q0,-45 -10,-60 Q-18,-95 0,-120Z" transform="rotate(140)" />
    <path d="M0,-120 Q18,-95 10,-60 Q0,-45 -10,-60 Q-18,-95 0,-120Z" transform="rotate(160)" />
    <path d="M0,-120 Q18,-95 10,-60 Q0,-45 -10,-60 Q-18,-95 0,-120Z" transform="rotate(180)" />
    <path d="M0,-120 Q18,-95 10,-60 Q0,-45 -10,-60 Q-18,-95 0,-120Z" transform="rotate(200)" />
    <path d="M0,-120 Q18,-95 10,-60 Q0,-45 -10,-60 Q-18,-95 0,-120Z" transform="rotate(220)" />
    <path d="M0,-120 Q18,-95 10,-60 Q0,-45 -10,-60 Q-18,-95 0,-120Z" transform="rotate(240)" />
    <path d="M0,-120 Q18,-95 10,-60 Q0,-45 -10,-60 Q-18,-95 0,-120Z" transform="rotate(260)" />
    <path d="M0,-120 Q18,-95 10,-60 Q0,-45 -10,-60 Q-18,-95 0,-120Z" transform="rotate(280)" />
    <path d="M0,-120 Q18,-95 10,-60 Q0,-45 -10,-60 Q-18,-95 0,-120Z" transform="rotate(300)" />
    <path d="M0,-120 Q18,-95 10,-60 Q0,-45 -10,-60 Q-18,-95 0,-120Z" transform="rotate(320)" />
    <path d="M0,-120 Q18,-95 10,-60 Q0,-45 -10,-60 Q-18,-95 0,-120Z" transform="rotate(340)" />
    
    <!-- Inner layer petals -->
    <path d="M0,-85 Q15,-65 8,-40 Q0,-28 -8,-40 Q-15,-65 0,-85Z" />
    <path d="M0,-85 Q15,-65 8,-40 Q0,-28 -8,-40 Q-15,-65 0,-85Z" transform="rotate(24)" />
    <path d="M0,-85 Q15,-65 8,-40 Q0,-28 -8,-40 Q-15,-65 0,-85Z" transform="rotate(48)" />
    <path d="M0,-85 Q15,-65 8,-40 Q0,-28 -8,-40 Q-15,-65 0,-85Z" transform="rotate(72)" />
    <path d="M0,-85 Q15,-65 8,-40 Q0,-28 -8,-40 Q-15,-65 0,-85Z" transform="rotate(96)" />
    <path d="M0,-85 Q15,-65 8,-40 Q0,-28 -8,-40 Q-15,-65 0,-85Z" transform="rotate(120)" />
    <path d="M0,-85 Q15,-65 8,-40 Q0,-28 -8,-40 Q-15,-65 0,-85Z" transform="rotate(144)" />
    <path d="M0,-85 Q15,-65 8,-40 Q0,-28 -8,-40 Q-15,-65 0,-85Z" transform="rotate(168)" />
    <path d="M0,-85 Q15,-65 8,-40 Q0,-28 -8,-40 Q-15,-65 0,-85Z" transform="rotate(192)" />
    <path d="M0,-85 Q15,-65 8,-40 Q0,-28 -8,-40 Q-15,-65 0,-85Z" transform="rotate(216)" />
    <path d="M0,-85 Q15,-65 8,-40 Q0,-28 -8,-40 Q-15,-65 0,-85Z" transform="rotate(240)" />
    <path d="M0,-85 Q15,-65 8,-40 Q0,-28 -8,-40 Q-15,-65 0,-85Z" transform="rotate(264)" />
    <path d="M0,-85 Q15,-65 8,-40 Q0,-28 -8,-40 Q-15,-65 0,-85Z" transform="rotate(288)" />
    <path d="M0,-85 Q15,-65 8,-40 Q0,-28 -8,-40 Q-15,-65 0,-85Z" transform="rotate(312)" />
    <path d="M0,-85 Q15,-65 8,-40 Q0,-28 -8,-40 Q-15,-65 0,-85Z" transform="rotate(336)" />
  </g>
</svg>
