<svg viewBox="0 0 400 400" xmlns="http://www.w3.org/2000/svg">
  <!-- Yellow Kratom Flower -->
  <g fill="#E8B942" transform="translate(200, 200)">
    <!-- Outer layer petals -->
    <path d="M0,-180 Q15,-150 8,-100 Q0,-80 -8,-100 Q-15,-150 0,-180Z" />
    <path d="M0,-180 Q15,-150 8,-100 Q0,-80 -8,-100 Q-15,-150 0,-180Z" transform="rotate(15)" />
    <path d="M0,-180 Q15,-150 8,-100 Q0,-80 -8,-100 Q-15,-150 0,-180Z" transform="rotate(30)" />
    <path d="M0,-180 Q15,-150 8,-100 Q0,-80 -8,-100 Q-15,-150 0,-180Z" transform="rotate(45)" />
    <path d="M0,-180 Q15,-150 8,-100 Q0,-80 -8,-100 Q-15,-150 0,-180Z" transform="rotate(60)" />
    <path d="M0,-180 Q15,-150 8,-100 Q0,-80 -8,-100 Q-15,-150 0,-180Z" transform="rotate(75)" />
    <path d="M0,-180 Q15,-150 8,-100 Q0,-80 -8,-100 Q-15,-150 0,-180Z" transform="rotate(90)" />
    <path d="M0,-180 Q15,-150 8,-100 Q0,-80 -8,-100 Q-15,-150 0,-180Z" transform="rotate(105)" />
    <path d="M0,-180 Q15,-150 8,-100 Q0,-80 -8,-100 Q-15,-150 0,-180Z" transform="rotate(120)" />
    <path d="M0,-180 Q15,-150 8,-100 Q0,-80 -8,-100 Q-15,-150 0,-180Z" transform="rotate(135)" />
    <path d="M0,-180 Q15,-150 8,-100 Q0,-80 -8,-100 Q-15,-150 0,-180Z" transform="rotate(150)" />
    <path d="M0,-180 Q15,-150 8,-100 Q0,-80 -8,-100 Q-15,-150 0,-180Z" transform="rotate(165)" />
    <path d="M0,-180 Q15,-150 8,-100 Q0,-80 -8,-100 Q-15,-150 0,-180Z" transform="rotate(180)" />
    <path d="M0,-180 Q15,-150 8,-100 Q0,-80 -8,-100 Q-15,-150 0,-180Z" transform="rotate(195)" />
    <path d="M0,-180 Q15,-150 8,-100 Q0,-80 -8,-100 Q-15,-150 0,-180Z" transform="rotate(210)" />
    <path d="M0,-180 Q15,-150 8,-100 Q0,-80 -8,-100 Q-15,-150 0,-180Z" transform="rotate(225)" />
    <path d="M0,-180 Q15,-150 8,-100 Q0,-80 -8,-100 Q-15,-150 0,-180Z" transform="rotate(240)" />
    <path d="M0,-180 Q15,-150 8,-100 Q0,-80 -8,-100 Q-15,-150 0,-180Z" transform="rotate(255)" />
    <path d="M0,-180 Q15,-150 8,-100 Q0,-80 -8,-100 Q-15,-150 0,-180Z" transform="rotate(270)" />
    <path d="M0,-180 Q15,-150 8,-100 Q0,-80 -8,-100 Q-15,-150 0,-180Z" transform="rotate(285)" />
    <path d="M0,-180 Q15,-150 8,-100 Q0,-80 -8,-100 Q-15,-150 0,-180Z" transform="rotate(300)" />
    <path d="M0,-180 Q15,-150 8,-100 Q0,-80 -8,-100 Q-15,-150 0,-180Z" transform="rotate(315)" />
    <path d="M0,-180 Q15,-150 8,-100 Q0,-80 -8,-100 Q-15,-150 0,-180Z" transform="rotate(330)" />
    <path d="M0,-180 Q15,-150 8,-100 Q0,-80 -8,-100 Q-15,-150 0,-180Z" transform="rotate(345)" />
    
    <!-- Middle layer petals (wider) -->
    <path d="M0,-140 Q20,-110 12,-70 Q0,-50 -12,-70 Q-20,-110 0,-140Z" />
    <path d="M0,-140 Q20,-110 12,-70 Q0,-50 -12,-70 Q-20,-110 0,-140Z" transform="rotate(20)" />
    <path d="M0,-140 Q20,-110 12,-70 Q0,-50 -12,-70 Q-20,-110 0,-140Z" transform="rotate(40)" />
    <path d="M0,-140 Q20,-110 12,-70 Q0,-50 -12,-70 Q-20,-110 0,-140Z" transform="rotate(60)" />
    <path d="M0,-140 Q20,-110 12,-70 Q0,-50 -12,-70 Q-20,-110 0,-140Z" transform="rotate(80)" />
    <path d="M0,-140 Q20,-110 12,-70 Q0,-50 -12,-70 Q-20,-110 0,-140Z" transform="rotate(100)" />
    <path d="M0,-140 Q20,-110 12,-70 Q0,-50 -12,-70 Q-20,-110 0,-140Z" transform="rotate(120)" />
    <path d="M0,-140 Q20,-110 12,-70 Q0,-50 -12,-70 Q-20,-110 0,-140Z" transform="rotate(140)" />
    <path d="M0,-140 Q20,-110 12,-70 Q0,-50 -12,-70 Q-20,-110 0,-140Z" transform="rotate(160)" />
    <path d="M0,-140 Q20,-110 12,-70 Q0,-50 -12,-70 Q-20,-110 0,-140Z" transform="rotate(180)" />
    <path d="M0,-140 Q20,-110 12,-70 Q0,-50 -12,-70 Q-20,-110 0,-140Z" transform="rotate(200)" />
    <path d="M0,-140 Q20,-110 12,-70 Q0,-50 -12,-70 Q-20,-110 0,-140Z" transform="rotate(220)" />
    <path d="M0,-140 Q20,-110 12,-70 Q0,-50 -12,-70 Q-20,-110 0,-140Z" transform="rotate(240)" />
    <path d="M0,-140 Q20,-110 12,-70 Q0,-50 -12,-70 Q-20,-110 0,-140Z" transform="rotate(260)" />
    <path d="M0,-140 Q20,-110 12,-70 Q0,-50 -12,-70 Q-20,-110 0,-140Z" transform="rotate(280)" />
    <path d="M0,-140 Q20,-110 12,-70 Q0,-50 -12,-70 Q-20,-110 0,-140Z" transform="rotate(300)" />
    <path d="M0,-140 Q20,-110 12,-70 Q0,-50 -12,-70 Q-20,-110 0,-140Z" transform="rotate(320)" />
    <path d="M0,-140 Q20,-110 12,-70 Q0,-50 -12,-70 Q-20,-110 0,-140Z" transform="rotate(340)" />
    
    <!-- Inner layer petals -->
    <path d="M0,-100 Q18,-75 10,-45 Q0,-30 -10,-45 Q-18,-75 0,-100Z" />
    <path d="M0,-100 Q18,-75 10,-45 Q0,-30 -10,-45 Q-18,-75 0,-100Z" transform="rotate(24)" />
    <path d="M0,-100 Q18,-75 10,-45 Q0,-30 -10,-45 Q-18,-75 0,-100Z" transform="rotate(48)" />
    <path d="M0,-100 Q18,-75 10,-45 Q0,-30 -10,-45 Q-18,-75 0,-100Z" transform="rotate(72)" />
    <path d="M0,-100 Q18,-75 10,-45 Q0,-30 -10,-45 Q-18,-75 0,-100Z" transform="rotate(96)" />
    <path d="M0,-100 Q18,-75 10,-45 Q0,-30 -10,-45 Q-18,-75 0,-100Z" transform="rotate(120)" />
    <path d="M0,-100 Q18,-75 10,-45 Q0,-30 -10,-45 Q-18,-75 0,-100Z" transform="rotate(144)" />
    <path d="M0,-100 Q18,-75 10,-45 Q0,-30 -10,-45 Q-18,-75 0,-100Z" transform="rotate(168)" />
    <path d="M0,-100 Q18,-75 10,-45 Q0,-30 -10,-45 Q-18,-75 0,-100Z" transform="rotate(192)" />
    <path d="M0,-100 Q18,-75 10,-45 Q0,-30 -10,-45 Q-18,-75 0,-100Z" transform="rotate(216)" />
    <path d="M0,-100 Q18,-75 10,-45 Q0,-30 -10,-45 Q-18,-75 0,-100Z" transform="rotate(240)" />
    <path d="M0,-100 Q18,-75 10,-45 Q0,-30 -10,-45 Q-18,-75 0,-100Z" transform="rotate(264)" />
    <path d="M0,-100 Q18,-75 10,-45 Q0,-30 -10,-45 Q-18,-75 0,-100Z" transform="rotate(288)" />
    <path d="M0,-100 Q18,-75 10,-45 Q0,-30 -10,-45 Q-18,-75 0,-100Z" transform="rotate(312)" />
    <path d="M0,-100 Q18,-75 10,-45 Q0,-30 -10,-45 Q-18,-75 0,-100Z" transform="rotate(336)" />
  </g>
</svg>
